<svg viewBox="0 0 420 150" preserveAspectRatio="xMidYMid meet" fill="none" stroke-linecap="round" stroke-linejoin="round" class="ill-hours">

  <text class="" x="20" y="34" font-size="13" font-family="inherit" font-weight="500" letter-spacing="0.06em" text-anchor="start" fill="var(--ill-muted, #9aabba)" stroke="none">MORNING</text>
  <text class="" x="400" y="34" font-size="13" font-family="inherit" font-weight="500" letter-spacing="0.06em" text-anchor="end" fill="var(--ill-muted, #9aabba)" stroke="none">NIGHT</text>
  <line x1="20" y1="60" x2="400" y2="60" stroke="var(--ill-muted, #9aabba)" stroke-width="6" stroke-linecap="round" opacity="0.35"/>
  <line class="fill" x1="20" y1="60" x2="400" y2="60" stroke="var(--ill-accent, #0f6f8c)" stroke-width="6" stroke-linecap="round"
        stroke-dasharray="380" stroke-dashoffset="380"/>
  <g stroke="var(--ill-muted, #9aabba)" stroke-width="1.2">
    <line x1="115" y1="70" x2="115" y2="78"/><line x1="210" y1="70" x2="210" y2="78"/><line x1="305" y1="70" x2="305" y2="78"/>
  </g>
  <text class="" x="115" y="92" font-size="13" font-family="inherit" font-weight="500" letter-spacing="0.06em" text-anchor="middle" fill="var(--ill-muted, #9aabba)" stroke="none">MIDDAY</text>
  <text class="" x="305" y="92" font-size="13" font-family="inherit" font-weight="500" letter-spacing="0.06em" text-anchor="middle" fill="var(--ill-muted, #9aabba)" stroke="none">EVENING</text>
  <g class="sun">
    <circle cx="20" cy="118" r="8" stroke="var(--ill-muted, #9aabba)" stroke-width="1.4"/>
    <path d="M20 104v-4M20 136v-4M6 118H2M38 118h-4" stroke="var(--ill-muted, #9aabba)" stroke-width="1.3"/>
  </g>
  <g class="moon"><path d="M404 112a8 8 0 1 0 6 13 9 9 0 0 1-6-13Z" stroke="var(--ill-muted, #9aabba)" stroke-width="1.4"/></g>
  <g class="" transform="translate(200 140) scale(0.8)" stroke="var(--ill-line, #10243e)" stroke-width="1.6">
    <circle cx="0" cy="-26" r="8.5"/>
    <path d="M-15 0c0-9 6.7-15 15-15s15 6 15 15"/>
  </g>
  <g class="" transform="translate(244 130) scale(0.62)">
    <rect x="-24" y="-18" width="48" height="32" rx="3" stroke="var(--ill-line, #10243e)" stroke-width="1.6"/>
    <rect class="glow" x="-20" y="-14" width="40" height="24" rx="2" fill="var(--ill-soft, rgba(15,111,140,0.12))" stroke="none"/>
    <path d="M-31 19h62l-5-5h-52l-5 5Z" stroke="var(--ill-line, #10243e)" stroke-width="1.6"/>
  </g>

</svg>
